<svg xmlns="http://www.w3.org/2000/svg" width="595" height="316" viewBox="0 0 595.0 316.0" font-family="ui-monospace,SFMono-Regular,Menlo,Consolas,monospace" font-size="15">
<rect width="100%" height="100%" fill="#0d1117" rx="6"/>
<rect x="176" y="14" width="18" height="18" fill="#528bac"/>
<rect x="104" y="32" width="9" height="18" fill="#103941"/>
<rect x="113" y="32" width="9" height="18" fill="#528bac"/>
<rect x="122" y="32" width="9" height="18" fill="#315a7b"/>
<rect x="131" y="32" width="18" height="18" fill="#73a4bd"/>
<rect x="149" y="32" width="36" height="18" fill="#528bac"/>
<rect x="185" y="32" width="18" height="18" fill="#315a7b"/>
<rect x="104" y="50" width="9" height="18" fill="#315a7b"/>
<rect x="113" y="50" width="18" height="18" fill="#f6e6bd"/>
<rect x="131" y="50" width="9" height="18" fill="#427394"/>
<rect x="140" y="50" width="9" height="18" fill="#528bac"/>
<rect x="149" y="50" width="36" height="18" fill="#f6e6bd"/>
<rect x="185" y="50" width="9" height="18" fill="#214a5e"/>
<rect x="194" y="50" width="27" height="18" fill="#315a7b"/>
<rect x="95" y="68" width="9" height="18" fill="#000000"/>
<rect x="104" y="68" width="54" height="18" fill="#f6e6bd"/>
<rect x="158" y="68" width="18" height="18" fill="#000000"/>
<rect x="176" y="68" width="18" height="18" fill="#f6e6bd"/>
<rect x="194" y="68" width="9" height="18" fill="#103941"/>
<rect x="203" y="68" width="27" height="18" fill="#315a7b"/>
<rect x="248" y="68" width="27" height="18" fill="#528bac"/>
<rect x="59" y="86" width="9" height="18" fill="#000000"/>
<rect x="95" y="86" width="9" height="18" fill="#000000"/>
<rect x="104" y="86" width="90" height="18" fill="#f6e6bd"/>
<rect x="194" y="86" width="9" height="18" fill="#103941"/>
<rect x="203" y="86" width="18" height="18" fill="#315a7b"/>
<rect x="221" y="86" width="9" height="18" fill="#103941"/>
<rect x="239" y="86" width="27" height="18" fill="#528bac"/>
<rect x="266" y="86" width="9" height="18" fill="#315a7b"/>
<rect x="275" y="86" width="18" height="18" fill="#000000"/>
<rect x="41" y="104" width="9" height="18" fill="#000000"/>
<rect x="50" y="104" width="9" height="18" fill="#103941"/>
<rect x="59" y="104" width="18" height="18" fill="#528bac"/>
<rect x="104" y="104" width="9" height="18" fill="#000000"/>
<rect x="113" y="104" width="72" height="18" fill="#f6e6bd"/>
<rect x="185" y="104" width="90" height="18" fill="#315a7b"/>
<rect x="275" y="104" width="9" height="18" fill="#000000"/>
<rect x="50" y="122" width="18" height="18" fill="#315a7b"/>
<rect x="68" y="122" width="27" height="18" fill="#528bac"/>
<rect x="95" y="122" width="18" height="18" fill="#315a7b"/>
<rect x="113" y="122" width="9" height="18" fill="#000000"/>
<rect x="122" y="122" width="9" height="18" fill="#f6e6bd"/>
<rect x="131" y="122" width="9" height="18" fill="#f6d5bd"/>
<rect x="140" y="122" width="18" height="18" fill="#e6c5ac"/>
<rect x="158" y="122" width="36" height="18" fill="#f6e6bd"/>
<rect x="194" y="122" width="9" height="18" fill="#103941"/>
<rect x="203" y="122" width="63" height="18" fill="#315a7b"/>
<rect x="266" y="122" width="9" height="18" fill="#000000"/>
<rect x="59" y="140" width="9" height="18" fill="#000000"/>
<rect x="68" y="140" width="27" height="18" fill="#315a7b"/>
<rect x="95" y="140" width="126" height="18" fill="#f6e6bd"/>
<rect x="221" y="140" width="36" height="18" fill="#315a7b"/>
<rect x="257" y="140" width="9" height="18" fill="#000000"/>
<rect x="77" y="158" width="9" height="18" fill="#000000"/>
<rect x="86" y="158" width="144" height="18" fill="#f6e6bd"/>
<rect x="230" y="158" width="9" height="18" fill="#103941"/>
<rect x="239" y="158" width="9" height="18" fill="#315a7b"/>
<rect x="248" y="158" width="27" height="18" fill="#103941"/>
<rect x="77" y="176" width="153" height="18" fill="#f6e6bd"/>
<rect x="230" y="176" width="9" height="18" fill="#e6c5ac"/>
<rect x="239" y="176" width="45" height="18" fill="#103941"/>
<rect x="68" y="194" width="9" height="18" fill="#000000"/>
<rect x="77" y="194" width="9" height="18" fill="#f6d5bd"/>
<rect x="86" y="194" width="117" height="18" fill="#f6e6bd"/>
<rect x="203" y="194" width="9" height="18" fill="#f6d5bd"/>
<rect x="212" y="194" width="27" height="18" fill="#e6c5ac"/>
<rect x="239" y="194" width="45" height="18" fill="#103941"/>
<rect x="32" y="212" width="9" height="18" fill="#000000"/>
<rect x="41" y="212" width="9" height="18" fill="#ffffff"/>
<rect x="50" y="212" width="9" height="18" fill="#000000"/>
<rect x="59" y="212" width="9" height="18" fill="#cdcdcd"/>
<rect x="68" y="212" width="9" height="18" fill="#000000"/>
<rect x="77" y="212" width="18" height="18" fill="#e6c5ac"/>
<rect x="95" y="212" width="18" height="18" fill="#f6d5bd"/>
<rect x="113" y="212" width="54" height="18" fill="#f6e6bd"/>
<rect x="167" y="212" width="27" height="18" fill="#f6d5bd"/>
<rect x="194" y="212" width="18" height="18" fill="#e6c5ac"/>
<rect x="212" y="212" width="9" height="18" fill="#000000"/>
<rect x="221" y="212" width="9" height="18" fill="#ffffff"/>
<rect x="230" y="212" width="18" height="18" fill="#e6c5ac"/>
<rect x="248" y="212" width="9" height="18" fill="#cdcdcd"/>
<rect x="257" y="212" width="27" height="18" fill="#103941"/>
<rect x="284" y="212" width="9" height="18" fill="#000000"/>
<rect x="32" y="230" width="9" height="18" fill="#000000"/>
<rect x="41" y="230" width="27" height="18" fill="#f6d5bd"/>
<rect x="68" y="230" width="18" height="18" fill="#f6e6bd"/>
<rect x="86" y="230" width="9" height="18" fill="#000000"/>
<rect x="95" y="230" width="108" height="18" fill="#e6c5ac"/>
<rect x="203" y="230" width="36" height="18" fill="#f6e6bd"/>
<rect x="239" y="230" width="9" height="18" fill="#f6d5bd"/>
<rect x="248" y="230" width="9" height="18" fill="#e6c5ac"/>
<rect x="257" y="230" width="18" height="18" fill="#000000"/>
<rect x="275" y="230" width="9" height="18" fill="#103941"/>
<rect x="41" y="248" width="18" height="18" fill="#a47352"/>
<rect x="59" y="248" width="9" height="18" fill="#624120"/>
<rect x="68" y="248" width="27" height="18" fill="#e6c5ac"/>
<rect x="95" y="248" width="9" height="18" fill="#000000"/>
<rect x="104" y="248" width="90" height="18" fill="#e6c5ac"/>
<rect x="194" y="248" width="18" height="18" fill="#f6e6bd"/>
<rect x="212" y="248" width="9" height="18" fill="#e6c5ac"/>
<rect x="221" y="248" width="9" height="18" fill="#624120"/>
<rect x="230" y="248" width="18" height="18" fill="#a47352"/>
<rect x="248" y="248" width="18" height="18" fill="#e6c5ac"/>
<rect x="266" y="248" width="9" height="18" fill="#000000"/>
<rect x="50" y="266" width="9" height="18" fill="#000000"/>
<rect x="59" y="266" width="9" height="18" fill="#a47352"/>
<rect x="68" y="266" width="27" height="18" fill="#e6c5ac"/>
<rect x="95" y="266" width="9" height="18" fill="#103941"/>
<rect x="104" y="266" width="27" height="18" fill="#000000"/>
<rect x="131" y="266" width="18" height="18" fill="#e6c5ac"/>
<rect x="149" y="266" width="9" height="18" fill="#eed6b5"/>
<rect x="158" y="266" width="18" height="18" fill="#f6e6bd"/>
<rect x="176" y="266" width="18" height="18" fill="#e6c5ac"/>
<rect x="194" y="266" width="9" height="18" fill="#000000"/>
<rect x="203" y="266" width="9" height="18" fill="#f6d5bd"/>
<rect x="212" y="266" width="9" height="18" fill="#e6c5ac"/>
<rect x="221" y="266" width="27" height="18" fill="#a47352"/>
<rect x="248" y="266" width="9" height="18" fill="#e6c5ac"/>
<rect x="257" y="266" width="9" height="18" fill="#000000"/>
<rect x="212" y="284" width="9" height="18" fill="#000000"/>
<rect x="221" y="284" width="18" height="18" fill="#e6c5ac"/>
<text x="113.00" y="27.70" fill="#000000" xml:space="preserve">▄▄</text>
<text x="167.00" y="27.70" fill="#103941" xml:space="preserve">▄</text>
<text x="176.00" y="27.70" fill="#000000" xml:space="preserve">▀▀▄</text>
<text x="104.00" y="45.70" fill="#103941" xml:space="preserve">▀</text>
<text x="113.00" y="45.70" fill="#528bac" xml:space="preserve">▀</text>
<text x="122.00" y="45.70" fill="#315a7b" xml:space="preserve">▀</text>
<text x="131.00" y="45.70" fill="#000000" xml:space="preserve">▀▀▀</text>
<text x="158.00" y="45.70" fill="#103941" xml:space="preserve">▀</text>
<text x="167.00" y="45.70" fill="#528bac" xml:space="preserve">▀▀</text>
<text x="185.00" y="45.70" fill="#315a7b" xml:space="preserve">▀▀▄</text>
<text x="104.00" y="63.70" fill="#103941" xml:space="preserve">▀</text>
<text x="113.00" y="63.70" fill="#315a7b" xml:space="preserve">▀</text>
<text x="122.00" y="63.70" fill="#528bac" xml:space="preserve">▀▀</text>
<text x="140.00" y="63.70" fill="#73a4bd" xml:space="preserve">▀</text>
<text x="149.00" y="63.70" fill="#528bac" xml:space="preserve">▀</text>
<text x="158.00" y="63.70" fill="#315a7b" xml:space="preserve">▀▀▀▀▀▀</text>
<text x="212.00" y="63.70" fill="#000000" xml:space="preserve">▀     ▄</text>
<text x="95.00" y="81.70" fill="#000000" xml:space="preserve">▀</text>
<text x="104.00" y="81.70" fill="#f6e6bd" xml:space="preserve">▀▀▀▀▀▀▀▀▀▀</text>
<text x="194.00" y="81.70" fill="#103941" xml:space="preserve">▀</text>
<text x="203.00" y="81.70" fill="#315a7b" xml:space="preserve">▀▀</text>
<text x="221.00" y="81.70" fill="#000000" xml:space="preserve">▀  ▀▀▀▄▄</text>
<text x="41.00" y="99.70" fill="#000000" xml:space="preserve">▄▄▀▄  ▀</text>
<text x="104.00" y="99.70" fill="#f6e6bd" xml:space="preserve">▀▀▀▀▀▀▀▀▀▀▀</text>
<text x="203.00" y="99.70" fill="#315a7b" xml:space="preserve">▀▀</text>
<text x="221.00" y="99.70" fill="#103941" xml:space="preserve">▀</text>
<text x="230.00" y="99.70" fill="#000000" xml:space="preserve">▄</text>
<text x="239.00" y="99.70" fill="#294656" xml:space="preserve">▀</text>
<text x="248.00" y="99.70" fill="#528bac" xml:space="preserve">▀▀▀</text>
<text x="275.00" y="99.70" fill="#000000" xml:space="preserve">▀▀</text>
<text x="320.00" y="99.70" fill="#f6c83c" xml:space="preserve">✦</text>
<text x="338.00" y="99.70" fill="#f6c83c" font-weight="bold" xml:space="preserve">A wild SNORLAX appeared!</text>
<text x="41.00" y="117.70" fill="#000000" xml:space="preserve">▀</text>
<text x="50.00" y="117.70" fill="#103941" xml:space="preserve">▀</text>
<text x="59.00" y="117.70" fill="#528bac" xml:space="preserve">▀</text>
<text x="68.00" y="117.70" fill="#000000" xml:space="preserve">▀</text>
<text x="77.00" y="117.70" fill="#528bac" xml:space="preserve">▄</text>
<text x="86.00" y="117.70" fill="#103941" xml:space="preserve">▄</text>
<text x="104.00" y="117.70" fill="#315a7b" xml:space="preserve">▀</text>
<text x="113.00" y="117.70" fill="#f6e6bd" xml:space="preserve">▀</text>
<text x="122.00" y="117.70" fill="#737373" xml:space="preserve">▀</text>
<text x="131.00" y="117.70" fill="#000000" xml:space="preserve">▀</text>
<text x="140.00" y="117.70" fill="#e6c5ac" xml:space="preserve">▀</text>
<text x="149.00" y="117.70" fill="#f6e6bd" xml:space="preserve">▀▀▀▀▀</text>
<text x="194.00" y="117.70" fill="#315a7b" xml:space="preserve">▀▀</text>
<text x="212.00" y="117.70" fill="#103941" xml:space="preserve">▀</text>
<text x="221.00" y="117.70" fill="#315a7b" xml:space="preserve">▀▀</text>
<text x="239.00" y="117.70" fill="#528bac" xml:space="preserve">▀▀</text>
<text x="257.00" y="117.70" fill="#315a7b" xml:space="preserve">▀▀</text>
<text x="275.00" y="117.70" fill="#000000" xml:space="preserve">▀</text>
<text x="41.00" y="135.70" fill="#000000" xml:space="preserve">▀</text>
<text x="50.00" y="135.70" fill="#315a7b" xml:space="preserve">▀▀</text>
<text x="68.00" y="135.70" fill="#528bac" xml:space="preserve">▀▀▀▀</text>
<text x="104.00" y="135.70" fill="#000000" xml:space="preserve">▀</text>
<text x="113.00" y="135.70" fill="#103941" xml:space="preserve">▀</text>
<text x="122.00" y="135.70" fill="#f6e6bd" xml:space="preserve">▀▀▀▀▀▀▀</text>
<text x="185.00" y="135.70" fill="#315a7b" xml:space="preserve">▀▀▀▀▀▀▀▀▀▀</text>
<text x="320.00" y="135.70" fill="#f6c83c" xml:space="preserve">#143</text>
<text x="374.00" y="135.70" fill="#a8a878" xml:space="preserve">NORMAL</text>
<text x="50.00" y="153.70" fill="#000000" xml:space="preserve">▀</text>
<text x="59.00" y="153.70" fill="#315a7b" xml:space="preserve">▀▀▀▀▀</text>
<text x="104.00" y="153.70" fill="#f6e6bd" xml:space="preserve">▀▀▀▀▀▀▀▀▀▀▀▀</text>
<text x="212.00" y="153.70" fill="#315a7b" xml:space="preserve">▀▀▀▀▀</text>
<text x="257.00" y="153.70" fill="#000000" xml:space="preserve">▀</text>
<text x="320.00" y="153.70" fill="#f6c83c" font-weight="bold" xml:space="preserve">NEW</text>
<text x="356.00" y="153.70" fill="#f6c83c" xml:space="preserve">— added to your Pokedex</text>
<text x="68.00" y="171.70" fill="#000000" xml:space="preserve">▀</text>
<text x="77.00" y="171.70" fill="#315a7b" xml:space="preserve">▀</text>
<text x="86.00" y="171.70" fill="#f6e6bd" xml:space="preserve">▀▀▀▀▀▀▀▀▀▀▀▀▀▀▀▀</text>
<text x="230.00" y="171.70" fill="#315a7b" xml:space="preserve">▀▀▀</text>
<text x="257.00" y="171.70" fill="#103941" xml:space="preserve">▀</text>
<text x="266.00" y="171.70" fill="#000000" xml:space="preserve">▀▄</text>
<text x="320.00" y="171.70" fill="#797b7d" xml:space="preserve">0.11% of encounters</text>
<text x="509.00" y="171.70" fill="#aaafb9" xml:space="preserve">COMMON</text>
<text x="68.00" y="189.70" fill="#000000" xml:space="preserve">▄▀</text>
<text x="86.00" y="189.70" fill="#f6e6bd" xml:space="preserve">▀▀▀▀▀▀▀▀▀▀▀▀▀▀▀▀</text>
<text x="230.00" y="189.70" fill="#103941" xml:space="preserve">▀▀▀▀▀</text>
<text x="275.00" y="189.70" fill="#000000" xml:space="preserve">▀</text>
<text x="68.00" y="207.70" fill="#000000" xml:space="preserve">▀</text>
<text x="77.00" y="207.70" fill="#f6d5bd" xml:space="preserve">▀</text>
<text x="86.00" y="207.70" fill="#f6e6bd" xml:space="preserve">▀▀▀▀▀▀▀▀▀▀▀▀▀▀▀</text>
<text x="221.00" y="207.70" fill="#e6c5ac" xml:space="preserve">▀▀</text>
<text x="239.00" y="207.70" fill="#103941" xml:space="preserve">▀▀▀▀▀</text>
<text x="284.00" y="207.70" fill="#000000" xml:space="preserve">▄</text>
<text x="320.00" y="207.70" fill="#797b7d" xml:space="preserve">Pokedex 1/1025 (0%)</text>
<text x="23.00" y="225.70" fill="#000000" xml:space="preserve">▄▀</text>
<text x="41.00" y="225.70" fill="#ffffff" xml:space="preserve">▀</text>
<text x="50.00" y="225.70" fill="#000000" xml:space="preserve">▀</text>
<text x="59.00" y="225.70" fill="#ffffff" xml:space="preserve">▀</text>
<text x="68.00" y="225.70" fill="#000000" xml:space="preserve">▀</text>
<text x="77.00" y="225.70" fill="#e6c5ac" xml:space="preserve">▀</text>
<text x="86.00" y="225.70" fill="#f6d5bd" xml:space="preserve">▀</text>
<text x="95.00" y="225.70" fill="#f6e6bd" xml:space="preserve">▀▀▀▀▀▀▀▀▀▀▀</text>
<text x="194.00" y="225.70" fill="#f6d5bd" xml:space="preserve">▀</text>
<text x="203.00" y="225.70" fill="#e6c5ac" xml:space="preserve">▀▀</text>
<text x="221.00" y="225.70" fill="#000000" xml:space="preserve">▀</text>
<text x="230.00" y="225.70" fill="#e6c5ac" xml:space="preserve">▀▀</text>
<text x="248.00" y="225.70" fill="#000000" xml:space="preserve">▀</text>
<text x="257.00" y="225.70" fill="#103941" xml:space="preserve">▀▀▀</text>
<text x="284.00" y="225.70" fill="#000000" xml:space="preserve">▀</text>
<text x="320.00" y="225.70" fill="#797b7d" xml:space="preserve">/pokeclaude:pokedex to browse</text>
<text x="23.00" y="243.70" fill="#000000" xml:space="preserve">▀▀</text>
<text x="41.00" y="243.70" fill="#f6e6bd" xml:space="preserve">▀▀▀▀</text>
<text x="77.00" y="243.70" fill="#000000" xml:space="preserve">▀</text>
<text x="86.00" y="243.70" fill="#e6c5ac" xml:space="preserve">▀▀▀</text>
<text x="113.00" y="243.70" fill="#f6d5bd" xml:space="preserve">▀▀▀▀▀▀</text>
<text x="167.00" y="243.70" fill="#e6c5ac" xml:space="preserve">▀▀▀▀▀</text>
<text x="212.00" y="243.70" fill="#000000" xml:space="preserve">▀</text>
<text x="221.00" y="243.70" fill="#624120" xml:space="preserve">▀</text>
<text x="230.00" y="243.70" fill="#f6e6bd" xml:space="preserve">▀</text>
<text x="239.00" y="243.70" fill="#000000" xml:space="preserve">▀▀▀</text>
<text x="266.00" y="243.70" fill="#ffffff" xml:space="preserve">▀</text>
<text x="275.00" y="243.70" fill="#103941" xml:space="preserve">▀</text>
<text x="284.00" y="243.70" fill="#000000" xml:space="preserve">▀</text>
<text x="32.00" y="261.70" fill="#000000" xml:space="preserve">▀</text>
<text x="41.00" y="261.70" fill="#e6c5ac" xml:space="preserve">▀▀▀</text>
<text x="68.00" y="261.70" fill="#f6e6bd" xml:space="preserve">▀</text>
<text x="77.00" y="261.70" fill="#f6d5bd" xml:space="preserve">▀</text>
<text x="86.00" y="261.70" fill="#e6c5ac" xml:space="preserve">▀▀▀▀▀▀▀▀▀▀▀▀</text>
<text x="194.00" y="261.70" fill="#f6e6bd" xml:space="preserve">▀▀▀</text>
<text x="221.00" y="261.70" fill="#f6d5bd" xml:space="preserve">▀</text>
<text x="230.00" y="261.70" fill="#e6c5ac" xml:space="preserve">▀▀▀▀▀</text>
<text x="275.00" y="261.70" fill="#103941" xml:space="preserve">▀</text>
<text x="41.00" y="279.70" fill="#000000" xml:space="preserve">▀</text>
<text x="50.00" y="279.70" fill="#a47352" xml:space="preserve">▀▀</text>
<text x="68.00" y="279.70" fill="#e6c5ac" xml:space="preserve">▀▀▀</text>
<text x="95.00" y="279.70" fill="#000000" xml:space="preserve">▀</text>
<text x="104.00" y="279.70" fill="#103941" xml:space="preserve">▀</text>
<text x="113.00" y="279.70" fill="#e6c5ac" xml:space="preserve">▀▀▀▀▀▀▀▀▀</text>
<text x="194.00" y="279.70" fill="#f6e6bd" xml:space="preserve">▀</text>
<text x="203.00" y="279.70" fill="#f6d5bd" xml:space="preserve">▀</text>
<text x="212.00" y="279.70" fill="#e6c5ac" xml:space="preserve">▀</text>
<text x="221.00" y="279.70" fill="#a47352" xml:space="preserve">▀▀▀</text>
<text x="248.00" y="279.70" fill="#624120" xml:space="preserve">▀</text>
<text x="257.00" y="279.70" fill="#e6c5ac" xml:space="preserve">▀</text>
<text x="59.00" y="297.70" fill="#000000" xml:space="preserve">▀</text>
<text x="68.00" y="297.70" fill="#e6c5ac" xml:space="preserve">▀</text>
<text x="77.00" y="297.70" fill="#000000" xml:space="preserve">▀       ▀▀▀</text>
<text x="203.00" y="297.70" fill="#e6c5ac" xml:space="preserve">▀▀▀</text>
<text x="230.00" y="297.70" fill="#624120" xml:space="preserve">▀</text>
<text x="239.00" y="297.70" fill="#e6c5ac" xml:space="preserve">▀</text>
<text x="248.00" y="297.70" fill="#000000" xml:space="preserve">▀</text>
</svg>