<svg xmlns="http://www.w3.org/2000/svg" width="613" height="352" viewBox="0 0 613.0 352.0" font-family="ui-monospace,SFMono-Regular,Menlo,Consolas,monospace" font-size="15">
<rect width="100%" height="100%" fill="#0d1117" rx="6"/>
<text x="32" y="27.7" fill="#f6c83c" font-weight="bold" textLength="63" lengthAdjust="spacing" xml:space="preserve">POKEDEX</text>
<text x="113" y="27.7" fill="#797b7d" textLength="117" lengthAdjust="spacing" xml:space="preserve">·  entry #493</text>
<rect x="67.5" y="49.5" width="10" height="10" fill="#696969"/>
<rect x="58.5" y="58.5" width="10" height="10" fill="#696969"/>
<rect x="67.5" y="58.5" width="10" height="10" fill="#b8b8b8"/>
<rect x="94.5" y="58.5" width="10" height="10" fill="#696969"/>
<rect x="49.5" y="67.5" width="10" height="10" fill="#696969"/>
<rect x="58.5" y="67.5" width="19" height="10" fill="#b8b8b8"/>
<rect x="76.5" y="67.5" width="19" height="10" fill="#696969"/>
<rect x="94.5" y="67.5" width="10" height="10" fill="#b8b8b8"/>
<rect x="103.5" y="67.5" width="10" height="10" fill="#0d0d0d"/>
<rect x="166.5" y="67.5" width="19" height="10" fill="#696969"/>
<rect x="49.5" y="76.5" width="10" height="10" fill="#919191"/>
<rect x="58.5" y="76.5" width="64" height="10" fill="#b8b8b8"/>
<rect x="121.5" y="76.5" width="10" height="10" fill="#484848"/>
<rect x="130.5" y="76.5" width="19" height="10" fill="#696969"/>
<rect x="148.5" y="76.5" width="10" height="10" fill="#353535"/>
<rect x="157.5" y="76.5" width="37" height="10" fill="#b8b8b8"/>
<rect x="193.5" y="76.5" width="19" height="10" fill="#484848"/>
<rect x="40.5" y="85.5" width="10" height="10" fill="#9c9c9c"/>
<rect x="49.5" y="85.5" width="118" height="10" fill="#b8b8b8"/>
<rect x="166.5" y="85.5" width="10" height="10" fill="#4e4e4e"/>
<rect x="175.5" y="85.5" width="19" height="10" fill="#919191"/>
<rect x="193.5" y="85.5" width="28" height="10" fill="#b8b8b8"/>
<rect x="31.5" y="94.5" width="10" height="10" fill="#a5a5a5"/>
<rect x="40.5" y="94.5" width="10" height="10" fill="#b9b9b9"/>
<rect x="49.5" y="94.5" width="19" height="10" fill="#b8b8b8"/>
<rect x="67.5" y="94.5" width="10" height="10" fill="#636363"/>
<rect x="76.5" y="94.5" width="10" height="10" fill="#0d0d0d"/>
<rect x="85.5" y="94.5" width="10" height="10" fill="#b8b8b8"/>
<rect x="94.5" y="94.5" width="10" height="10" fill="#636363"/>
<rect x="103.5" y="94.5" width="19" height="10" fill="#414141"/>
<rect x="121.5" y="94.5" width="10" height="10" fill="#0d0d0d"/>
<rect x="130.5" y="94.5" width="37" height="10" fill="#4e4e4e"/>
<rect x="166.5" y="94.5" width="10" height="10" fill="#2d2d2d"/>
<rect x="175.5" y="94.5" width="10" height="10" fill="#060606"/>
<rect x="31.5" y="103.5" width="10" height="10" fill="#696969"/>
<rect x="40.5" y="103.5" width="10" height="10" fill="#4e4e4e"/>
<rect x="49.5" y="103.5" width="10" height="10" fill="#343434"/>
<rect x="58.5" y="103.5" width="10" height="10" fill="#595959"/>
<rect x="67.5" y="103.5" width="10" height="10" fill="#4e4e4e"/>
<rect x="76.5" y="103.5" width="19" height="10" fill="#b8b8b8"/>
<rect x="94.5" y="103.5" width="10" height="10" fill="#4e4e4e"/>
<rect x="103.5" y="103.5" width="10" height="10" fill="#b8b8b8"/>
<rect x="139.5" y="103.5" width="19" height="10" fill="#0d0d0d"/>
<rect x="49.5" y="112.5" width="10" height="10" fill="#4e4e4e"/>
<rect x="58.5" y="112.5" width="19" height="10" fill="#848484"/>
<rect x="76.5" y="112.5" width="37" height="10" fill="#b8b8b8"/>
<rect x="49.5" y="121.5" width="10" height="10" fill="#919191"/>
<rect x="58.5" y="121.5" width="10" height="10" fill="#3b3b3b"/>
<rect x="67.5" y="121.5" width="10" height="10" fill="#636363"/>
<rect x="76.5" y="121.5" width="28" height="10" fill="#b8b8b8"/>
<rect x="121.5" y="121.5" width="10" height="10" fill="#585858"/>
<rect x="157.5" y="121.5" width="10" height="10" fill="#898989"/>
<rect x="184.5" y="121.5" width="10" height="10" fill="#898989"/>
<rect x="76.5" y="130.5" width="10" height="10" fill="#636363"/>
<rect x="85.5" y="130.5" width="19" height="10" fill="#b8b8b8"/>
<rect x="103.5" y="130.5" width="10" height="10" fill="#919191"/>
<rect x="121.5" y="130.5" width="10" height="10" fill="#585858"/>
<rect x="130.5" y="130.5" width="10" height="10" fill="#9a9a9a"/>
<rect x="139.5" y="130.5" width="10" height="10" fill="#585858"/>
<rect x="148.5" y="130.5" width="10" height="10" fill="#aaaaaa"/>
<rect x="157.5" y="130.5" width="10" height="10" fill="#0d0d0d"/>
<rect x="184.5" y="130.5" width="10" height="10" fill="#585858"/>
<rect x="193.5" y="130.5" width="19" height="10" fill="#b9b9b9"/>
<rect x="238.5" y="130.5" width="10" height="10" fill="#585858"/>
<rect x="247.5" y="130.5" width="10" height="10" fill="#060606"/>
<rect x="68" y="140" width="9" height="18" fill="#919191"/>
<rect x="77" y="140" width="36" height="18" fill="#b8b8b8"/>
<rect x="113" y="140" width="9" height="18" fill="#919191"/>
<rect x="122" y="140" width="9" height="18" fill="#0d0d0d"/>
<rect x="131" y="140" width="9" height="18" fill="#585858"/>
<rect x="140" y="140" width="9" height="18" fill="#848484"/>
<rect x="203" y="140" width="9" height="18" fill="#0d0d0d"/>
<rect x="212" y="140" width="18" height="18" fill="#9a9a9a"/>
<rect x="230" y="140" width="9" height="18" fill="#0d0d0d"/>
<text x="59" y="153.7" fill="#484848" textLength="27" lengthAdjust="spacing" xml:space="preserve">▄▀▀</text>
<text x="86" y="153.7" fill="#b8b8b8" textLength="36" lengthAdjust="spacing" xml:space="preserve">▀▀▀▀</text>
<text x="122" y="153.7" fill="#484848" textLength="9" lengthAdjust="spacing" xml:space="preserve">▀</text>
<text x="131" y="153.7" fill="#7f7f7f" textLength="18" lengthAdjust="spacing" xml:space="preserve">▀▀</text>
<text x="194" y="153.7" fill="#0d0d0d" textLength="9" lengthAdjust="spacing" xml:space="preserve">▀</text>
<text x="203" y="153.7" fill="#b9b9b9" textLength="9" lengthAdjust="spacing" xml:space="preserve">▀</text>
<text x="212" y="153.7" fill="#585858" textLength="18" lengthAdjust="spacing" xml:space="preserve">▀▀</text>
<text x="230" y="153.7" fill="#b9b9b9" textLength="9" lengthAdjust="spacing" xml:space="preserve">▀</text>
<text x="239" y="153.7" fill="#0d0d0d" textLength="9" lengthAdjust="spacing" xml:space="preserve">▀</text>
<text x="329" y="153.7" fill="#f6c83c" font-weight="bold" textLength="99" lengthAdjust="spacing" xml:space="preserve">#493 ARCEUS</text>
<rect x="68" y="158" width="9" height="18" fill="#4e4e4e"/>
<rect x="77" y="158" width="18" height="18" fill="#b8b8b8"/>
<rect x="95" y="158" width="9" height="18" fill="#919191"/>
<rect x="104" y="158" width="18" height="18" fill="#b8b8b8"/>
<rect x="122" y="158" width="9" height="18" fill="#0d0d0d"/>
<rect x="140" y="158" width="9" height="18" fill="#0d0d0d"/>
<rect x="149" y="158" width="9" height="18" fill="#6c6c6c"/>
<rect x="158" y="158" width="18" height="18" fill="#b9b9b9"/>
<rect x="203" y="158" width="18" height="18" fill="#7f7f7f"/>
<rect x="221" y="158" width="9" height="18" fill="#9a9a9a"/>
<rect x="266" y="158" width="18" height="18" fill="#b8b8b8"/>
<text x="59" y="171.7" fill="#696969" textLength="9" lengthAdjust="spacing" xml:space="preserve">▄</text>
<text x="68" y="171.7" fill="#595959" textLength="9" lengthAdjust="spacing" xml:space="preserve">▀</text>
<text x="77" y="171.7" fill="#b8b8b8" textLength="36" lengthAdjust="spacing" xml:space="preserve">▀▀▀▀</text>
<text x="113" y="171.7" fill="#6d6d6d" textLength="9" lengthAdjust="spacing" xml:space="preserve">▀</text>
<text x="122" y="171.7" fill="#6c6c6c" textLength="9" lengthAdjust="spacing" xml:space="preserve">▀</text>
<text x="131" y="171.7" fill="#7f7f7f" textLength="27" lengthAdjust="spacing" xml:space="preserve">▀▀▀</text>
<text x="158" y="171.7" fill="#585858" textLength="18" lengthAdjust="spacing" xml:space="preserve">▀▀</text>
<text x="176" y="171.7" fill="#b9b9b9" textLength="9" lengthAdjust="spacing" xml:space="preserve">▄</text>
<text x="185" y="171.7" fill="#585858" textLength="9" lengthAdjust="spacing" xml:space="preserve">▄</text>
<text x="194" y="171.7" fill="#9a9a9a" textLength="36" lengthAdjust="spacing" xml:space="preserve">▄▀▀▀</text>
<text x="257" y="171.7" fill="#b8b8b8" textLength="9" lengthAdjust="spacing" xml:space="preserve">▄</text>
<text x="266" y="171.7" fill="#696969" textLength="18" lengthAdjust="spacing" xml:space="preserve">▀▀</text>
<text x="284" y="171.7" fill="#b8b8b8" textLength="9" lengthAdjust="spacing" xml:space="preserve">▄</text>
<text x="293" y="171.7" fill="#0d0d0d" textLength="9" lengthAdjust="spacing" xml:space="preserve">▄</text>
<text x="329" y="171.7" fill="#797b7d" textLength="54" lengthAdjust="spacing" xml:space="preserve">NORMAL</text>
<rect x="58.5" y="175.5" width="10" height="10" fill="#696969"/>
<rect x="67.5" y="175.5" width="10" height="10" fill="#919191"/>
<rect x="76.5" y="175.5" width="10" height="10" fill="#b8b8b8"/>
<rect x="85.5" y="175.5" width="19" height="10" fill="#919191"/>
<rect x="103.5" y="175.5" width="10" height="10" fill="#b8b8b8"/>
<rect x="112.5" y="175.5" width="10" height="10" fill="#919191"/>
<rect x="121.5" y="175.5" width="10" height="10" fill="#585858"/>
<rect x="139.5" y="175.5" width="19" height="10" fill="#585858"/>
<rect x="157.5" y="175.5" width="37" height="10" fill="#9a9a9a"/>
<rect x="193.5" y="175.5" width="10" height="10" fill="#7f7f7f"/>
<rect x="211.5" y="175.5" width="10" height="10" fill="#060606"/>
<rect x="220.5" y="175.5" width="10" height="10" fill="#9a9a9a"/>
<rect x="229.5" y="175.5" width="10" height="10" fill="#0d0d0d"/>
<rect x="238.5" y="175.5" width="10" height="10" fill="#484848"/>
<rect x="247.5" y="175.5" width="19" height="10" fill="#b8b8b8"/>
<rect x="265.5" y="175.5" width="10" height="10" fill="#686868"/>
<rect x="274.5" y="175.5" width="10" height="10" fill="#0d0d0d"/>
<rect x="67.5" y="184.5" width="10" height="10" fill="#696969"/>
<rect x="76.5" y="184.5" width="10" height="10" fill="#919191"/>
<rect x="85.5" y="184.5" width="10" height="10" fill="#343434"/>
<rect x="94.5" y="184.5" width="19" height="10" fill="#b8b8b8"/>
<rect x="112.5" y="184.5" width="10" height="10" fill="#4f4f4f"/>
<rect x="121.5" y="184.5" width="10" height="10" fill="#585858"/>
<rect x="130.5" y="184.5" width="10" height="10" fill="#0d0d0d"/>
<rect x="139.5" y="184.5" width="19" height="10" fill="#b8b8b8"/>
<rect x="157.5" y="184.5" width="19" height="10" fill="#919191"/>
<rect x="175.5" y="184.5" width="10" height="10" fill="#585858"/>
<rect x="184.5" y="184.5" width="10" height="10" fill="#9a9a9a"/>
<rect x="193.5" y="184.5" width="10" height="10" fill="#919191"/>
<rect x="202.5" y="184.5" width="10" height="10" fill="#696969"/>
<rect x="211.5" y="184.5" width="10" height="10" fill="#b8b8b8"/>
<rect x="220.5" y="184.5" width="10" height="10" fill="#585858"/>
<rect x="229.5" y="184.5" width="10" height="10" fill="#7f7f7f"/>
<rect x="238.5" y="184.5" width="19" height="10" fill="#b8b8b8"/>
<rect x="256.5" y="184.5" width="10" height="10" fill="#686868"/>
<rect x="265.5" y="184.5" width="10" height="10" fill="#0d0d0d"/>
<rect x="77" y="194" width="18" height="18" fill="#686868"/>
<rect x="95" y="194" width="9" height="18" fill="#4e4e4e"/>
<rect x="104" y="194" width="18" height="18" fill="#b8b8b8"/>
<rect x="122" y="194" width="9" height="18" fill="#484848"/>
<rect x="131" y="194" width="18" height="18" fill="#b8b8b8"/>
<rect x="149" y="194" width="9" height="18" fill="#aaaaaa"/>
<rect x="158" y="194" width="9" height="18" fill="#b9b9b9"/>
<rect x="167" y="194" width="9" height="18" fill="#7f7f7f"/>
<rect x="176" y="194" width="9" height="18" fill="#9a9a9a"/>
<rect x="185" y="194" width="18" height="18" fill="#7f7f7f"/>
<rect x="203" y="194" width="18" height="18" fill="#b8b8b8"/>
<rect x="221" y="194" width="9" height="18" fill="#585858"/>
<rect x="230" y="194" width="9" height="18" fill="#9a9a9a"/>
<rect x="239" y="194" width="9" height="18" fill="#0d0d0d"/>
<rect x="248" y="194" width="9" height="18" fill="#4e4e4e"/>
<text x="68" y="207.7" fill="#0d0d0d" textLength="9" lengthAdjust="spacing" xml:space="preserve">▄</text>
<text x="77" y="207.7" fill="#686868" textLength="18" lengthAdjust="spacing" xml:space="preserve">▀▀</text>
<text x="95" y="207.7" fill="#b8b8b8" textLength="27" lengthAdjust="spacing" xml:space="preserve">▀▀▀</text>
<text x="122" y="207.7" fill="#484848" textLength="9" lengthAdjust="spacing" xml:space="preserve">▀</text>
<text x="131" y="207.7" fill="#b8b8b8" textLength="18" lengthAdjust="spacing" xml:space="preserve">▀▀</text>
<text x="149" y="207.7" fill="#585858" textLength="36" lengthAdjust="spacing" xml:space="preserve">▀▀▀▀</text>
<text x="185" y="207.7" fill="#9a9a9a" textLength="9" lengthAdjust="spacing" xml:space="preserve">▀</text>
<text x="194" y="207.7" fill="#585858" textLength="9" lengthAdjust="spacing" xml:space="preserve">▀</text>
<text x="203" y="207.7" fill="#b8b8b8" textLength="18" lengthAdjust="spacing" xml:space="preserve">▀▀</text>
<text x="221" y="207.7" fill="#585858" textLength="9" lengthAdjust="spacing" xml:space="preserve">▀</text>
<text x="230" y="207.7" fill="#9a9a9a" textLength="9" lengthAdjust="spacing" xml:space="preserve">▀</text>
<text x="239" y="207.7" fill="#4e4e4e" textLength="27" lengthAdjust="spacing" xml:space="preserve">▀▀▀</text>
<text x="329" y="207.7" fill="#797b7d" textLength="180" lengthAdjust="spacing" xml:space="preserve">0.004% of encounters</text>
<text x="527" y="207.7" fill="#f6c83c" textLength="72" lengthAdjust="spacing" xml:space="preserve">MYTHICAL</text>
<rect x="58.5" y="211.5" width="10" height="10" fill="#696969"/>
<rect x="67.5" y="211.5" width="10" height="10" fill="#0d0d0d"/>
<rect x="76.5" y="211.5" width="28" height="10" fill="#4e4e4e"/>
<rect x="103.5" y="211.5" width="55" height="10" fill="#b8b8b8"/>
<rect x="157.5" y="211.5" width="19" height="10" fill="#919191"/>
<rect x="175.5" y="211.5" width="10" height="10" fill="#0d0d0d"/>
<rect x="184.5" y="211.5" width="10" height="10" fill="#585858"/>
<rect x="193.5" y="211.5" width="10" height="10" fill="#7f7f7f"/>
<rect x="202.5" y="211.5" width="28" height="10" fill="#b8b8b8"/>
<rect x="229.5" y="211.5" width="10" height="10" fill="#9a9a9a"/>
<rect x="238.5" y="211.5" width="10" height="10" fill="#0d0d0d"/>
<rect x="58.5" y="220.5" width="19" height="10" fill="#b8b8b8"/>
<rect x="76.5" y="220.5" width="10" height="10" fill="#4e4e4e"/>
<rect x="85.5" y="220.5" width="10" height="10" fill="#414141"/>
<rect x="94.5" y="220.5" width="10" height="10" fill="#0d0d0d"/>
<rect x="103.5" y="220.5" width="28" height="10" fill="#b8b8b8"/>
<rect x="130.5" y="220.5" width="10" height="10" fill="#a5a5a5"/>
<rect x="139.5" y="220.5" width="28" height="10" fill="#b8b8b8"/>
<rect x="166.5" y="220.5" width="19" height="10" fill="#919191"/>
<rect x="184.5" y="220.5" width="10" height="10" fill="#585858"/>
<rect x="193.5" y="220.5" width="10" height="10" fill="#7f7f7f"/>
<rect x="202.5" y="220.5" width="28" height="10" fill="#b8b8b8"/>
<rect x="229.5" y="220.5" width="10" height="10" fill="#9a9a9a"/>
<rect x="238.5" y="220.5" width="10" height="10" fill="#b8b8b8"/>
<rect x="68" y="230" width="9" height="18" fill="#0d0d0d"/>
<rect x="77" y="230" width="9" height="18" fill="#919191"/>
<rect x="86" y="230" width="27" height="18" fill="#b8b8b8"/>
<rect x="113" y="230" width="9" height="18" fill="#919191"/>
<rect x="131" y="230" width="9" height="18" fill="#484848"/>
<rect x="140" y="230" width="45" height="18" fill="#919191"/>
<rect x="185" y="230" width="9" height="18" fill="#7f7f7f"/>
<rect x="194" y="230" width="9" height="18" fill="#585858"/>
<rect x="203" y="230" width="9" height="18" fill="#0d0d0d"/>
<rect x="212" y="230" width="9" height="18" fill="#919191"/>
<rect x="221" y="230" width="9" height="18" fill="#9a9a9a"/>
<rect x="230" y="230" width="9" height="18" fill="#0d0d0d"/>
<text x="59" y="243.7" fill="#484848" textLength="9" lengthAdjust="spacing" xml:space="preserve">▀</text>
<text x="68" y="243.7" fill="#919191" textLength="9" lengthAdjust="spacing" xml:space="preserve">▀</text>
<text x="77" y="243.7" fill="#4e4e4e" textLength="18" lengthAdjust="spacing" xml:space="preserve">▀▀</text>
<text x="95" y="243.7" fill="#b8b8b8" textLength="18" lengthAdjust="spacing" xml:space="preserve">▀▀</text>
<text x="113" y="243.7" fill="#919191" textLength="18" lengthAdjust="spacing" xml:space="preserve">▀▀</text>
<text x="131" y="243.7" fill="#0d0d0d" textLength="9" lengthAdjust="spacing" xml:space="preserve">▀</text>
<text x="140" y="243.7" fill="#919191" textLength="45" lengthAdjust="spacing" xml:space="preserve">▀▀▀▀▀</text>
<text x="185" y="243.7" fill="#7f7f7f" textLength="9" lengthAdjust="spacing" xml:space="preserve">▀</text>
<text x="194" y="243.7" fill="#0d0d0d" textLength="9" lengthAdjust="spacing" xml:space="preserve">▀</text>
<text x="203" y="243.7" fill="#b8b8b8" textLength="18" lengthAdjust="spacing" xml:space="preserve">▀▀</text>
<text x="221" y="243.7" fill="#9a9a9a" textLength="9" lengthAdjust="spacing" xml:space="preserve">▀</text>
<text x="230" y="243.7" fill="#0d0d0d" textLength="9" lengthAdjust="spacing" xml:space="preserve">▀</text>
<text x="329" y="243.7" fill="#797b7d" textLength="126" lengthAdjust="spacing" xml:space="preserve">not yet caught</text>
<rect x="76.5" y="247.5" width="10" height="10" fill="#696969"/>
<rect x="85.5" y="247.5" width="19" height="10" fill="#b8b8b8"/>
<rect x="103.5" y="247.5" width="10" height="10" fill="#919191"/>
<rect x="112.5" y="247.5" width="10" height="10" fill="#7f7f7f"/>
<rect x="121.5" y="247.5" width="10" height="10" fill="#0d0d0d"/>
<rect x="139.5" y="247.5" width="10" height="10" fill="#7f7f7f"/>
<rect x="148.5" y="247.5" width="19" height="10" fill="#0d0d0d"/>
<rect x="166.5" y="247.5" width="10" height="10" fill="#484848"/>
<rect x="175.5" y="247.5" width="10" height="10" fill="#696969"/>
<rect x="184.5" y="247.5" width="19" height="10" fill="#7f7f7f"/>
<rect x="202.5" y="247.5" width="19" height="10" fill="#919191"/>
<rect x="220.5" y="247.5" width="10" height="10" fill="#9a9a9a"/>
<rect x="229.5" y="247.5" width="10" height="10" fill="#b8b8b8"/>
<rect x="238.5" y="247.5" width="10" height="10" fill="#0d0d0d"/>
<rect x="67.5" y="256.5" width="10" height="10" fill="#060606"/>
<rect x="76.5" y="256.5" width="19" height="10" fill="#b8b8b8"/>
<rect x="94.5" y="256.5" width="10" height="10" fill="#696969"/>
<rect x="103.5" y="256.5" width="10" height="10" fill="#7d7d7d"/>
<rect x="112.5" y="256.5" width="10" height="10" fill="#454545"/>
<rect x="121.5" y="256.5" width="10" height="10" fill="#848484"/>
<rect x="130.5" y="256.5" width="10" height="10" fill="#7f7f7f"/>
<rect x="139.5" y="256.5" width="10" height="10" fill="#464646"/>
<rect x="166.5" y="256.5" width="10" height="10" fill="#484848"/>
<rect x="175.5" y="256.5" width="19" height="10" fill="#696969"/>
<rect x="193.5" y="256.5" width="10" height="10" fill="#9a9a9a"/>
<rect x="202.5" y="256.5" width="10" height="10" fill="#464646"/>
<rect x="211.5" y="256.5" width="10" height="10" fill="#919191"/>
<rect x="220.5" y="256.5" width="10" height="10" fill="#0d0d0d"/>
<rect x="229.5" y="256.5" width="10" height="10" fill="#b8b8b8"/>
<rect x="238.5" y="256.5" width="10" height="10" fill="#636363"/>
<rect x="58.5" y="265.5" width="10" height="10" fill="#696969"/>
<rect x="67.5" y="265.5" width="37" height="10" fill="#b8b8b8"/>
<rect x="103.5" y="265.5" width="10" height="10" fill="#919191"/>
<rect x="112.5" y="265.5" width="10" height="10" fill="#060606"/>
<rect x="121.5" y="265.5" width="19" height="10" fill="#7f7f7f"/>
<rect x="175.5" y="265.5" width="10" height="10" fill="#3b3b3b"/>
<rect x="184.5" y="265.5" width="10" height="10" fill="#696969"/>
<rect x="193.5" y="265.5" width="10" height="10" fill="#0d0d0d"/>
<rect x="202.5" y="265.5" width="10" height="10" fill="#848484"/>
<rect x="211.5" y="265.5" width="10" height="10" fill="#9a9a9a"/>
<rect x="220.5" y="265.5" width="10" height="10" fill="#919191"/>
<rect x="229.5" y="265.5" width="10" height="10" fill="#696969"/>
<rect x="238.5" y="265.5" width="10" height="10" fill="#b8b8b8"/>
<rect x="247.5" y="265.5" width="10" height="10" fill="#353535"/>
<rect x="67.5" y="274.5" width="37" height="10" fill="#b8b8b8"/>
<rect x="103.5" y="274.5" width="10" height="10" fill="#0d0d0d"/>
<rect x="112.5" y="274.5" width="10" height="10" fill="#797979"/>
<rect x="121.5" y="274.5" width="10" height="10" fill="#0d0d0d"/>
<rect x="130.5" y="274.5" width="10" height="10" fill="#7f7f7f"/>
<rect x="139.5" y="274.5" width="10" height="10" fill="#0d0d0d"/>
<rect x="175.5" y="274.5" width="10" height="10" fill="#484848"/>
<rect x="184.5" y="274.5" width="10" height="10" fill="#696969"/>
<rect x="193.5" y="274.5" width="19" height="10" fill="#9a9a9a"/>
<rect x="211.5" y="274.5" width="10" height="10" fill="#545454"/>
<rect x="220.5" y="274.5" width="10" height="10" fill="#919191"/>
<rect x="229.5" y="274.5" width="10" height="10" fill="#696969"/>
<rect x="238.5" y="274.5" width="19" height="10" fill="#b8b8b8"/>
<rect x="67.5" y="283.5" width="10" height="10" fill="#696969"/>
<rect x="76.5" y="283.5" width="28" height="10" fill="#b8b8b8"/>
<rect x="103.5" y="283.5" width="10" height="10" fill="#0d0d0d"/>
<rect x="139.5" y="283.5" width="10" height="10" fill="#9a9a9a"/>
<rect x="184.5" y="283.5" width="19" height="10" fill="#9a9a9a"/>
<rect x="202.5" y="283.5" width="10" height="10" fill="#0d0d0d"/>
<rect x="211.5" y="283.5" width="10" height="10" fill="#9a9a9a"/>
<rect x="220.5" y="283.5" width="10" height="10" fill="#b8b8b8"/>
<rect x="229.5" y="283.5" width="10" height="10" fill="#919191"/>
<rect x="238.5" y="283.5" width="28" height="10" fill="#b8b8b8"/>
<rect x="67.5" y="292.5" width="19" height="10" fill="#585858"/>
<rect x="85.5" y="292.5" width="10" height="10" fill="#484848"/>
<rect x="94.5" y="292.5" width="19" height="10" fill="#919191"/>
<rect x="184.5" y="292.5" width="10" height="10" fill="#0d0d0d"/>
<rect x="193.5" y="292.5" width="10" height="10" fill="#585858"/>
<rect x="202.5" y="292.5" width="19" height="10" fill="#696969"/>
<rect x="220.5" y="292.5" width="10" height="10" fill="#9a9a9a"/>
<rect x="238.5" y="292.5" width="28" height="10" fill="#b8b8b8"/>
<rect x="67.5" y="301.5" width="10" height="10" fill="#b9b9b9"/>
<rect x="76.5" y="301.5" width="10" height="10" fill="#585858"/>
<rect x="85.5" y="301.5" width="10" height="10" fill="#484848"/>
<rect x="94.5" y="301.5" width="10" height="10" fill="#919191"/>
<rect x="103.5" y="301.5" width="10" height="10" fill="#0d0d0d"/>
<rect x="193.5" y="301.5" width="10" height="10" fill="#0d0d0d"/>
<rect x="202.5" y="301.5" width="10" height="10" fill="#585858"/>
<rect x="211.5" y="301.5" width="10" height="10" fill="#696969"/>
<rect x="238.5" y="301.5" width="10" height="10" fill="#0d0d0d"/>
<rect x="247.5" y="301.5" width="10" height="10" fill="#7f7f7f"/>
<rect x="256.5" y="301.5" width="10" height="10" fill="#0d0d0d"/>
<rect x="58.5" y="310.5" width="10" height="10" fill="#585858"/>
<rect x="67.5" y="310.5" width="10" height="10" fill="#b9b9b9"/>
<rect x="76.5" y="310.5" width="19" height="10" fill="#585858"/>
<rect x="94.5" y="310.5" width="10" height="10" fill="#9a9a9a"/>
<rect x="193.5" y="310.5" width="10" height="10" fill="#0d0d0d"/>
<rect x="202.5" y="310.5" width="10" height="10" fill="#585858"/>
<rect x="247.5" y="310.5" width="10" height="10" fill="#797979"/>
<rect x="256.5" y="310.5" width="10" height="10" fill="#585858"/>
<rect x="58.5" y="319.5" width="10" height="10" fill="#585858"/>
<rect x="67.5" y="319.5" width="10" height="10" fill="#9a9a9a"/>
<rect x="193.5" y="319.5" width="10" height="10" fill="#0d0d0d"/>
<rect x="247.5" y="319.5" width="10" height="10" fill="#b9b9b9"/>
<rect x="256.5" y="319.5" width="10" height="10" fill="#333333"/>
<rect x="49.5" y="328.5" width="10" height="10" fill="#585858"/>
<rect x="58.5" y="328.5" width="10" height="10" fill="#0d0d0d"/>
<rect x="247.5" y="328.5" width="10" height="10" fill="#b9b9b9"/>
</svg>