<svg xmlns="http://www.w3.org/2000/svg" width="622" height="352" viewBox="0 0 622.0 352.0" font-family="ui-monospace,SFMono-Regular,Menlo,Consolas,monospace" font-size="15">
<rect width="100%" height="100%" fill="#0d1117" rx="6"/>
<rect x="85.5" y="49.5" width="10" height="19" fill="#f0efe8"/>
<rect x="103.5" y="49.5" width="10" height="19" fill="#cfcac7"/>
<rect x="112.5" y="49.5" width="10" height="19" fill="#f0efe8"/>
<rect x="121.5" y="49.5" width="19" height="19" fill="#181818"/>
<rect x="139.5" y="49.5" width="10" height="19" fill="#cfcac7"/>
<rect x="40.5" y="67.5" width="10" height="19" fill="#ef3d96"/>
<rect x="49.5" y="67.5" width="10" height="19" fill="#f0efe8"/>
<rect x="58.5" y="67.5" width="10" height="19" fill="#5b5b5c"/>
<rect x="67.5" y="67.5" width="19" height="19" fill="#f0efe8"/>
<rect x="85.5" y="67.5" width="10" height="19" fill="#ef3d96"/>
<rect x="94.5" y="67.5" width="10" height="19" fill="#181818"/>
<rect x="103.5" y="67.5" width="10" height="19" fill="#aea5a5"/>
<rect x="121.5" y="67.5" width="10" height="19" fill="#aea5a5"/>
<rect x="148.5" y="67.5" width="10" height="19" fill="#181818"/>
<rect x="157.5" y="67.5" width="10" height="19" fill="#a6a5a2"/>
<rect x="31.5" y="85.5" width="10" height="19" fill="#882d51"/>
<rect x="40.5" y="85.5" width="10" height="19" fill="#ef3d96"/>
<rect x="49.5" y="85.5" width="10" height="19" fill="#5b5b5c"/>
<rect x="58.5" y="85.5" width="37" height="19" fill="#ef3d96"/>
<rect x="94.5" y="85.5" width="28" height="19" fill="#aea5a5"/>
<rect x="121.5" y="85.5" width="10" height="19" fill="#635f5f"/>
<rect x="157.5" y="85.5" width="10" height="19" fill="#aea5a5"/>
<rect x="49.5" y="103.5" width="10" height="19" fill="#144791"/>
<rect x="58.5" y="103.5" width="19" height="19" fill="#1a3570"/>
<rect x="76.5" y="103.5" width="19" height="19" fill="#0061a9"/>
<rect x="94.5" y="103.5" width="10" height="19" fill="#f73c2d"/>
<rect x="103.5" y="103.5" width="10" height="19" fill="#202248"/>
<rect x="112.5" y="103.5" width="10" height="19" fill="#ac3269"/>
<rect x="121.5" y="103.5" width="10" height="19" fill="#aea5a5"/>
<rect x="130.5" y="103.5" width="10" height="19" fill="#3d1213"/>
<rect x="139.5" y="103.5" width="10" height="19" fill="#202248"/>
<rect x="157.5" y="103.5" width="10" height="19" fill="#aea5a5"/>
<rect x="166.5" y="103.5" width="10" height="19" fill="#181818"/>
<rect x="49.5" y="121.5" width="19" height="19" fill="#0061a9"/>
<rect x="67.5" y="121.5" width="10" height="19" fill="#202248"/>
<rect x="76.5" y="121.5" width="10" height="19" fill="#144791"/>
<rect x="85.5" y="121.5" width="10" height="19" fill="#7a2325"/>
<rect x="94.5" y="121.5" width="10" height="19" fill="#85770c"/>
<rect x="103.5" y="121.5" width="10" height="19" fill="#882a23"/>
<rect x="112.5" y="121.5" width="10" height="19" fill="#f0efe8"/>
<rect x="121.5" y="121.5" width="10" height="19" fill="#f73c2d"/>
<rect x="130.5" y="121.5" width="10" height="19" fill="#b53335"/>
<rect x="139.5" y="121.5" width="10" height="19" fill="#552946"/>
<rect x="148.5" y="121.5" width="10" height="19" fill="#171623"/>
<rect x="49.5" y="139.5" width="10" height="19" fill="#202248"/>
<rect x="58.5" y="139.5" width="10" height="19" fill="#181818"/>
<rect x="67.5" y="139.5" width="10" height="19" fill="#b93029"/>
<rect x="76.5" y="139.5" width="10" height="19" fill="#f73c2d"/>
<rect x="85.5" y="139.5" width="19" height="19" fill="#b93029"/>
<rect x="103.5" y="139.5" width="10" height="19" fill="#f73c2d"/>
<rect x="112.5" y="139.5" width="10" height="19" fill="#882a23"/>
<rect x="121.5" y="139.5" width="19" height="19" fill="#b53335"/>
<rect x="139.5" y="139.5" width="10" height="19" fill="#982b2d"/>
<rect x="148.5" y="139.5" width="10" height="19" fill="#282c78"/>
<rect x="76.5" y="157.5" width="19" height="19" fill="#48494d"/>
<rect x="94.5" y="157.5" width="10" height="19" fill="#9e4c55"/>
<rect x="103.5" y="157.5" width="10" height="19" fill="#555455"/>
<rect x="112.5" y="157.5" width="10" height="19" fill="#f29692"/>
<rect x="121.5" y="157.5" width="10" height="19" fill="#f73c2d"/>
<rect x="130.5" y="157.5" width="10" height="19" fill="#0061a9"/>
<rect x="139.5" y="157.5" width="19" height="19" fill="#144791"/>
<rect x="76.5" y="175.5" width="10" height="19" fill="#35373d"/>
<rect x="85.5" y="175.5" width="10" height="19" fill="#5b5b5c"/>
<rect x="94.5" y="175.5" width="10" height="19" fill="#9e4c55"/>
<rect x="103.5" y="175.5" width="19" height="19" fill="#f73c2d"/>
<rect x="121.5" y="175.5" width="10" height="19" fill="#144791"/>
<rect x="130.5" y="175.5" width="37" height="19" fill="#f73c2d"/>
<rect x="166.5" y="175.5" width="10" height="19" fill="#b93029"/>
<rect x="175.5" y="175.5" width="10" height="19" fill="#635f5f"/>
<rect x="184.5" y="175.5" width="19" height="19" fill="#0061a9"/>
<rect x="76.5" y="193.5" width="28" height="19" fill="#5b5b5c"/>
<rect x="103.5" y="193.5" width="19" height="19" fill="#b53335"/>
<rect x="121.5" y="193.5" width="10" height="19" fill="#848480"/>
<rect x="130.5" y="193.5" width="10" height="19" fill="#cfcac7"/>
<rect x="139.5" y="193.5" width="10" height="19" fill="#72314d"/>
<rect x="148.5" y="193.5" width="10" height="19" fill="#181818"/>
<rect x="157.5" y="193.5" width="28" height="19" fill="#f73c2d"/>
<rect x="184.5" y="193.5" width="10" height="19" fill="#7a2325"/>
<rect x="193.5" y="193.5" width="10" height="19" fill="#202248"/>
<rect x="202.5" y="193.5" width="19" height="19" fill="#aea5a5"/>
<rect x="67.5" y="211.5" width="28" height="19" fill="#b53335"/>
<rect x="94.5" y="211.5" width="19" height="19" fill="#35373d"/>
<rect x="112.5" y="211.5" width="10" height="19" fill="#635f5f"/>
<rect x="121.5" y="211.5" width="19" height="19" fill="#b53335"/>
<rect x="139.5" y="211.5" width="19" height="19" fill="#282c78"/>
<rect x="157.5" y="211.5" width="10" height="19" fill="#7a2325"/>
<rect x="166.5" y="211.5" width="28" height="19" fill="#f73c2d"/>
<rect x="193.5" y="211.5" width="19" height="19" fill="#5b5b5c"/>
<rect x="31.5" y="229.5" width="10" height="19" fill="#542023"/>
<rect x="40.5" y="229.5" width="10" height="19" fill="#181818"/>
<rect x="49.5" y="229.5" width="10" height="19" fill="#7a2325"/>
<rect x="58.5" y="229.5" width="10" height="19" fill="#882a23"/>
<rect x="85.5" y="229.5" width="10" height="19" fill="#7a2325"/>
<rect x="94.5" y="229.5" width="10" height="19" fill="#b53335"/>
<rect x="103.5" y="229.5" width="19" height="19" fill="#aea5a5"/>
<rect x="121.5" y="229.5" width="10" height="19" fill="#b53335"/>
<rect x="130.5" y="229.5" width="10" height="19" fill="#f73c2d"/>
<rect x="139.5" y="229.5" width="10" height="19" fill="#cfcac7"/>
<rect x="148.5" y="229.5" width="10" height="19" fill="#282c78"/>
<rect x="157.5" y="229.5" width="10" height="19" fill="#d8372c"/>
<rect x="166.5" y="229.5" width="28" height="19" fill="#f73c2d"/>
<rect x="193.5" y="229.5" width="10" height="19" fill="#b53335"/>
<rect x="202.5" y="229.5" width="10" height="19" fill="#181818"/>
<rect x="67.5" y="247.5" width="10" height="19" fill="#f73c2d"/>
<rect x="76.5" y="247.5" width="37" height="19" fill="#aea5a5"/>
<rect x="112.5" y="247.5" width="10" height="19" fill="#635f5f"/>
<rect x="121.5" y="247.5" width="19" height="19" fill="#f0efe8"/>
<rect x="139.5" y="247.5" width="10" height="19" fill="#f73c2d"/>
<rect x="148.5" y="247.5" width="10" height="19" fill="#cfcac7"/>
<rect x="157.5" y="247.5" width="10" height="19" fill="#848480"/>
<rect x="166.5" y="247.5" width="10" height="19" fill="#202248"/>
<rect x="175.5" y="247.5" width="10" height="19" fill="#ac3269"/>
<rect x="184.5" y="247.5" width="10" height="19" fill="#7a2325"/>
<rect x="193.5" y="247.5" width="19" height="19" fill="#aea5a5"/>
<rect x="211.5" y="247.5" width="19" height="19" fill="#f0efe8"/>
<rect x="229.5" y="247.5" width="19" height="19" fill="#b53335"/>
<rect x="247.5" y="247.5" width="19" height="19" fill="#f73c2d"/>
<rect x="265.5" y="247.5" width="19" height="19" fill="#181818"/>
<rect x="283.5" y="247.5" width="10" height="19" fill="#f73c2d"/>
<rect x="58.5" y="265.5" width="10" height="19" fill="#542023"/>
<rect x="67.5" y="265.5" width="19" height="19" fill="#b53335"/>
<rect x="85.5" y="265.5" width="10" height="19" fill="#a32e2a"/>
<rect x="94.5" y="265.5" width="19" height="19" fill="#b53335"/>
<rect x="112.5" y="265.5" width="10" height="19" fill="#542023"/>
<rect x="121.5" y="265.5" width="10" height="19" fill="#35373d"/>
<rect x="130.5" y="265.5" width="10" height="19" fill="#27282b"/>
<rect x="139.5" y="265.5" width="10" height="19" fill="#882a23"/>
<rect x="148.5" y="265.5" width="19" height="19" fill="#f73c2d"/>
<rect x="166.5" y="265.5" width="10" height="19" fill="#882a23"/>
<rect x="175.5" y="265.5" width="10" height="19" fill="#aea5a5"/>
<rect x="184.5" y="265.5" width="10" height="19" fill="#858081"/>
<rect x="193.5" y="265.5" width="10" height="19" fill="#aea5a5"/>
<rect x="202.5" y="265.5" width="19" height="19" fill="#f0efe8"/>
<rect x="220.5" y="265.5" width="10" height="19" fill="#9e4c55"/>
<rect x="67.5" y="283.5" width="28" height="19" fill="#b53335"/>
<rect x="112.5" y="283.5" width="10" height="19" fill="#3d1213"/>
<rect x="121.5" y="283.5" width="10" height="19" fill="#542023"/>
<rect x="130.5" y="283.5" width="10" height="19" fill="#181818"/>
<rect x="139.5" y="283.5" width="10" height="19" fill="#27282b"/>
<rect x="148.5" y="283.5" width="37" height="19" fill="#f73c2d"/>
<rect x="184.5" y="283.5" width="10" height="19" fill="#635f5f"/>
<rect x="193.5" y="283.5" width="10" height="19" fill="#aea5a5"/>
<rect x="58.5" y="301.5" width="19" height="19" fill="#b93029"/>
<rect x="76.5" y="301.5" width="10" height="19" fill="#f73c2d"/>
<rect x="85.5" y="301.5" width="10" height="19" fill="#b53335"/>
<rect x="94.5" y="301.5" width="10" height="19" fill="#181818"/>
<rect x="157.5" y="301.5" width="10" height="19" fill="#b93029"/>
<rect x="166.5" y="301.5" width="19" height="19" fill="#f73c2d"/>
<rect x="184.5" y="301.5" width="10" height="19" fill="#d8372c"/>
<rect x="148.5" y="319.5" width="10" height="19" fill="#672627"/>
<rect x="157.5" y="319.5" width="10" height="19" fill="#7a2325"/>
<rect x="166.5" y="319.5" width="10" height="19" fill="#f73c2d"/>
<rect x="175.5" y="319.5" width="19" height="19" fill="#848480"/>
<rect x="193.5" y="319.5" width="10" height="19" fill="#542023"/>
<rect x="202.5" y="319.5" width="10" height="19" fill="#7a2325"/>
<text x="32" y="27.7" fill="#f6c83c" font-weight="bold" textLength="63" lengthAdjust="spacing" xml:space="preserve">POKEDEX</text>
<text x="113" y="27.7" fill="#797b7d" textLength="126" lengthAdjust="spacing" xml:space="preserve">·  entry #1007</text>
<text x="59" y="63.7" fill="#a6a5a2" textLength="9" lengthAdjust="spacing" xml:space="preserve">▄</text>
<text x="68" y="63.7" fill="#5b5b5c" textLength="9" lengthAdjust="spacing" xml:space="preserve">▄</text>
<text x="77" y="63.7" fill="#a6a5a2" textLength="18" lengthAdjust="spacing" xml:space="preserve">▄▀</text>
<text x="95" y="63.7" fill="#5b5b5c" textLength="9" lengthAdjust="spacing" xml:space="preserve">▄</text>
<text x="104" y="63.7" fill="#2e2e2e" textLength="9" lengthAdjust="spacing" xml:space="preserve">▀</text>
<text x="113" y="63.7" fill="#5b5b5c" textLength="27" lengthAdjust="spacing" xml:space="preserve">▀▀▀</text>
<text x="140" y="63.7" fill="#aa8e8e" textLength="9" lengthAdjust="spacing" xml:space="preserve">▀</text>
<text x="149" y="63.7" fill="#a6a5a2" textLength="9" lengthAdjust="spacing" xml:space="preserve">▄</text>
<text x="32" y="81.7" fill="#0c0c0c" textLength="9" lengthAdjust="spacing" xml:space="preserve">▄</text>
<text x="41" y="81.7" fill="#a6a5a2" textLength="9" lengthAdjust="spacing" xml:space="preserve">▀</text>
<text x="50" y="81.7" fill="#858081" textLength="9" lengthAdjust="spacing" xml:space="preserve">▀</text>
<text x="59" y="81.7" fill="#5b5b5c" textLength="9" lengthAdjust="spacing" xml:space="preserve">▀</text>
<text x="68" y="81.7" fill="#f0efe8" textLength="27" lengthAdjust="spacing" xml:space="preserve">▀▀▀</text>
<text x="95" y="81.7" fill="#ef3d96" textLength="9" lengthAdjust="spacing" xml:space="preserve">▀</text>
<text x="104" y="81.7" fill="#aea5a5" textLength="9" lengthAdjust="spacing" xml:space="preserve">▀</text>
<text x="113" y="81.7" fill="#5b5b5c" textLength="18" lengthAdjust="spacing" xml:space="preserve">▄▀</text>
<text x="149" y="81.7" fill="#635f5f" textLength="9" lengthAdjust="spacing" xml:space="preserve">▀</text>
<text x="158" y="81.7" fill="#2e2e2e" textLength="9" lengthAdjust="spacing" xml:space="preserve">▀</text>
<text x="32" y="99.7" fill="#882d51" textLength="9" lengthAdjust="spacing" xml:space="preserve">▀</text>
<text x="41" y="99.7" fill="#ef3d96" textLength="9" lengthAdjust="spacing" xml:space="preserve">▀</text>
<text x="50" y="99.7" fill="#f0efe8" textLength="18" lengthAdjust="spacing" xml:space="preserve">▀▀</text>
<text x="68" y="99.7" fill="#f29692" textLength="9" lengthAdjust="spacing" xml:space="preserve">▀</text>
<text x="77" y="99.7" fill="#f0efe8" textLength="9" lengthAdjust="spacing" xml:space="preserve">▀</text>
<text x="86" y="99.7" fill="#ef3d96" textLength="9" lengthAdjust="spacing" xml:space="preserve">▀</text>
<text x="95" y="99.7" fill="#f0efe8" textLength="9" lengthAdjust="spacing" xml:space="preserve">▀</text>
<text x="104" y="99.7" fill="#aea5a5" textLength="36" lengthAdjust="spacing" xml:space="preserve">▀▀▀▄</text>
<text x="158" y="99.7" fill="#848480" textLength="9" lengthAdjust="spacing" xml:space="preserve">▀</text>
<text x="167" y="99.7" fill="#181818" textLength="9" lengthAdjust="spacing" xml:space="preserve">▄</text>
<text x="41" y="117.7" fill="#282c78" textLength="9" lengthAdjust="spacing" xml:space="preserve">▀</text>
<text x="50" y="117.7" fill="#0061a9" textLength="9" lengthAdjust="spacing" xml:space="preserve">▀</text>
<text x="59" y="117.7" fill="#1a3570" textLength="9" lengthAdjust="spacing" xml:space="preserve">▀</text>
<text x="68" y="117.7" fill="#144791" textLength="9" lengthAdjust="spacing" xml:space="preserve">▀</text>
<text x="77" y="117.7" fill="#0061a9" textLength="9" lengthAdjust="spacing" xml:space="preserve">▀</text>
<text x="86" y="117.7" fill="#202248" textLength="9" lengthAdjust="spacing" xml:space="preserve">▀</text>
<text x="95" y="117.7" fill="#7a2325" textLength="9" lengthAdjust="spacing" xml:space="preserve">▀</text>
<text x="104" y="117.7" fill="#ac3269" textLength="9" lengthAdjust="spacing" xml:space="preserve">▀</text>
<text x="113" y="117.7" fill="#aea5a5" textLength="18" lengthAdjust="spacing" xml:space="preserve">▀▀</text>
<text x="131" y="117.7" fill="#635f5f" textLength="9" lengthAdjust="spacing" xml:space="preserve">▀</text>
<text x="140" y="117.7" fill="#5b5b5c" textLength="9" lengthAdjust="spacing" xml:space="preserve">▀</text>
<text x="149" y="117.7" fill="#0c0c0c" textLength="9" lengthAdjust="spacing" xml:space="preserve">▄</text>
<text x="158" y="117.7" fill="#181818" textLength="9" lengthAdjust="spacing" xml:space="preserve">▀</text>
<text x="167" y="117.7" fill="#635f5f" textLength="9" lengthAdjust="spacing" xml:space="preserve">▀</text>
<text x="176" y="117.7" fill="#181818" textLength="9" lengthAdjust="spacing" xml:space="preserve">▄</text>
<text x="203" y="117.7" fill="#635f5f" textLength="9" lengthAdjust="spacing" xml:space="preserve">▄</text>
<text x="212" y="117.7" fill="#0c0c0c" textLength="9" lengthAdjust="spacing" xml:space="preserve">▄</text>
<text x="41" y="135.7" fill="#202248" textLength="9" lengthAdjust="spacing" xml:space="preserve">▄</text>
<text x="50" y="135.7" fill="#282c78" textLength="9" lengthAdjust="spacing" xml:space="preserve">▀</text>
<text x="59" y="135.7" fill="#0061a9" textLength="9" lengthAdjust="spacing" xml:space="preserve">▀</text>
<text x="68" y="135.7" fill="#144791" textLength="9" lengthAdjust="spacing" xml:space="preserve">▀</text>
<text x="77" y="135.7" fill="#282c78" textLength="9" lengthAdjust="spacing" xml:space="preserve">▀</text>
<text x="86" y="135.7" fill="#0061a9" textLength="9" lengthAdjust="spacing" xml:space="preserve">▀</text>
<text x="95" y="135.7" fill="#f73c2d" textLength="9" lengthAdjust="spacing" xml:space="preserve">▀</text>
<text x="104" y="135.7" fill="#282c78" textLength="9" lengthAdjust="spacing" xml:space="preserve">▀</text>
<text x="113" y="135.7" fill="#202248" textLength="9" lengthAdjust="spacing" xml:space="preserve">▀</text>
<text x="122" y="135.7" fill="#f73c2d" textLength="9" lengthAdjust="spacing" xml:space="preserve">▀</text>
<text x="131" y="135.7" fill="#282c78" textLength="9" lengthAdjust="spacing" xml:space="preserve">▀</text>
<text x="140" y="135.7" fill="#181818" textLength="18" lengthAdjust="spacing" xml:space="preserve">▀▀</text>
<text x="158" y="135.7" fill="#060606" textLength="9" lengthAdjust="spacing" xml:space="preserve">▄</text>
<text x="176" y="135.7" fill="#181818" textLength="36" lengthAdjust="spacing" xml:space="preserve">▀▀▀▀</text>
<text x="329" y="135.7" fill="#f6c83c" font-weight="bold" textLength="126" lengthAdjust="spacing" xml:space="preserve">#1007 KORAIDON</text>
<text x="50" y="153.7" fill="#0061a9" textLength="9" lengthAdjust="spacing" xml:space="preserve">▀</text>
<text x="59" y="153.7" fill="#181818" textLength="9" lengthAdjust="spacing" xml:space="preserve">▀</text>
<text x="68" y="153.7" fill="#27282b" textLength="9" lengthAdjust="spacing" xml:space="preserve">▀</text>
<text x="77" y="153.7" fill="#f73c2d" textLength="27" lengthAdjust="spacing" xml:space="preserve">▀▀▀</text>
<text x="104" y="153.7" fill="#b93029" textLength="9" lengthAdjust="spacing" xml:space="preserve">▀</text>
<text x="113" y="153.7" fill="#f73c2d" textLength="9" lengthAdjust="spacing" xml:space="preserve">▀</text>
<text x="122" y="153.7" fill="#b53335" textLength="18" lengthAdjust="spacing" xml:space="preserve">▀▀</text>
<text x="140" y="153.7" fill="#7a2325" textLength="9" lengthAdjust="spacing" xml:space="preserve">▀</text>
<text x="149" y="153.7" fill="#282c78" textLength="9" lengthAdjust="spacing" xml:space="preserve">▀</text>
<text x="158" y="153.7" fill="#060606" textLength="9" lengthAdjust="spacing" xml:space="preserve">▄</text>
<text x="329" y="153.7" fill="#797b7d" textLength="144" lengthAdjust="spacing" xml:space="preserve">FIGHTING, DRAGON</text>
<text x="77" y="171.7" fill="#882a23" textLength="9" lengthAdjust="spacing" xml:space="preserve">▀</text>
<text x="86" y="171.7" fill="#35373d" textLength="9" lengthAdjust="spacing" xml:space="preserve">▀</text>
<text x="95" y="171.7" fill="#5b5b5c" textLength="18" lengthAdjust="spacing" xml:space="preserve">▀▀</text>
<text x="113" y="171.7" fill="#552946" textLength="9" lengthAdjust="spacing" xml:space="preserve">▀</text>
<text x="122" y="171.7" fill="#2e2e2e" textLength="9" lengthAdjust="spacing" xml:space="preserve">▀</text>
<text x="131" y="171.7" fill="#b53335" textLength="9" lengthAdjust="spacing" xml:space="preserve">▀</text>
<text x="140" y="171.7" fill="#282c78" textLength="18" lengthAdjust="spacing" xml:space="preserve">▀▀</text>
<text x="158" y="171.7" fill="#202248" textLength="9" lengthAdjust="spacing" xml:space="preserve">▄</text>
<text x="77" y="189.7" fill="#5b5b5c" textLength="27" lengthAdjust="spacing" xml:space="preserve">▀▀▀</text>
<text x="104" y="189.7" fill="#f0efe8" textLength="9" lengthAdjust="spacing" xml:space="preserve">▀</text>
<text x="113" y="189.7" fill="#f73c2d" textLength="9" lengthAdjust="spacing" xml:space="preserve">▀</text>
<text x="122" y="189.7" fill="#0061a9" textLength="9" lengthAdjust="spacing" xml:space="preserve">▀</text>
<text x="131" y="189.7" fill="#3d415e" textLength="9" lengthAdjust="spacing" xml:space="preserve">▀</text>
<text x="140" y="189.7" fill="#f73c2d" textLength="9" lengthAdjust="spacing" xml:space="preserve">▀</text>
<text x="149" y="189.7" fill="#b93029" textLength="9" lengthAdjust="spacing" xml:space="preserve">▀</text>
<text x="158" y="189.7" fill="#313566" textLength="9" lengthAdjust="spacing" xml:space="preserve">▀</text>
<text x="167" y="189.7" fill="#282c78" textLength="9" lengthAdjust="spacing" xml:space="preserve">▀</text>
<text x="176" y="189.7" fill="#202248" textLength="9" lengthAdjust="spacing" xml:space="preserve">▀</text>
<text x="185" y="189.7" fill="#635f5f" textLength="9" lengthAdjust="spacing" xml:space="preserve">▀</text>
<text x="194" y="189.7" fill="#0061a9" textLength="9" lengthAdjust="spacing" xml:space="preserve">▀</text>
<text x="329" y="189.7" fill="#797b7d" textLength="180" lengthAdjust="spacing" xml:space="preserve">0.006% of encounters</text>
<text x="527" y="189.7" fill="#f6c83c" textLength="81" lengthAdjust="spacing" xml:space="preserve">LEGENDARY</text>
<text x="77" y="207.7" fill="#5b5b5c" textLength="27" lengthAdjust="spacing" xml:space="preserve">▀▀▀</text>
<text x="104" y="207.7" fill="#f0efe8" textLength="9" lengthAdjust="spacing" xml:space="preserve">▀</text>
<text x="113" y="207.7" fill="#b53335" textLength="9" lengthAdjust="spacing" xml:space="preserve">▀</text>
<text x="122" y="207.7" fill="#672627" textLength="9" lengthAdjust="spacing" xml:space="preserve">▀</text>
<text x="131" y="207.7" fill="#f0efe8" textLength="9" lengthAdjust="spacing" xml:space="preserve">▀</text>
<text x="140" y="207.7" fill="#b93029" textLength="9" lengthAdjust="spacing" xml:space="preserve">▀</text>
<text x="149" y="207.7" fill="#f73c2d" textLength="27" lengthAdjust="spacing" xml:space="preserve">▀▀▀</text>
<text x="176" y="207.7" fill="#7a2325" textLength="9" lengthAdjust="spacing" xml:space="preserve">▀</text>
<text x="185" y="207.7" fill="#0061a9" textLength="18" lengthAdjust="spacing" xml:space="preserve">▀▀</text>
<text x="203" y="207.7" fill="#181818" textLength="9" lengthAdjust="spacing" xml:space="preserve">▀</text>
<text x="212" y="207.7" fill="#858081" textLength="9" lengthAdjust="spacing" xml:space="preserve">▀</text>
<text x="41" y="225.7" fill="#3d1213" textLength="9" lengthAdjust="spacing" xml:space="preserve">▄</text>
<text x="50" y="225.7" fill="#7a2325" textLength="18" lengthAdjust="spacing" xml:space="preserve">▄▄</text>
<text x="68" y="225.7" fill="#3d1213" textLength="9" lengthAdjust="spacing" xml:space="preserve">▀</text>
<text x="77" y="225.7" fill="#982b2d" textLength="9" lengthAdjust="spacing" xml:space="preserve">▀</text>
<text x="86" y="225.7" fill="#181818" textLength="9" lengthAdjust="spacing" xml:space="preserve">▀</text>
<text x="95" y="225.7" fill="#35373d" textLength="18" lengthAdjust="spacing" xml:space="preserve">▀▀</text>
<text x="113" y="225.7" fill="#181818" textLength="9" lengthAdjust="spacing" xml:space="preserve">▀</text>
<text x="122" y="225.7" fill="#f0efe8" textLength="9" lengthAdjust="spacing" xml:space="preserve">▀</text>
<text x="131" y="225.7" fill="#b53335" textLength="9" lengthAdjust="spacing" xml:space="preserve">▀</text>
<text x="140" y="225.7" fill="#181818" textLength="9" lengthAdjust="spacing" xml:space="preserve">▀</text>
<text x="149" y="225.7" fill="#aea5a5" textLength="9" lengthAdjust="spacing" xml:space="preserve">▀</text>
<text x="158" y="225.7" fill="#7a2325" textLength="9" lengthAdjust="spacing" xml:space="preserve">▀</text>
<text x="167" y="225.7" fill="#f73c2d" textLength="27" lengthAdjust="spacing" xml:space="preserve">▀▀▀</text>
<text x="194" y="225.7" fill="#aea5a5" textLength="9" lengthAdjust="spacing" xml:space="preserve">▀</text>
<text x="203" y="225.7" fill="#181818" textLength="9" lengthAdjust="spacing" xml:space="preserve">▀</text>
<text x="212" y="225.7" fill="#5b5b5c" textLength="9" lengthAdjust="spacing" xml:space="preserve">▄</text>
<text x="221" y="225.7" fill="#a6a5a2" textLength="9" lengthAdjust="spacing" xml:space="preserve">▄</text>
<text x="329" y="225.7" fill="#f6c83c" textLength="90" lengthAdjust="spacing" xml:space="preserve">CAUGHT  ×4</text>
<text x="32" y="243.7" fill="#3d1213" textLength="9" lengthAdjust="spacing" xml:space="preserve">▀</text>
<text x="41" y="243.7" fill="#f73c2d" textLength="27" lengthAdjust="spacing" xml:space="preserve">▀▀▀</text>
<text x="68" y="243.7" fill="#181818" textLength="27" lengthAdjust="spacing" xml:space="preserve">▀▀▀</text>
<text x="95" y="243.7" fill="#7a2325" textLength="9" lengthAdjust="spacing" xml:space="preserve">▀</text>
<text x="104" y="243.7" fill="#635f5f" textLength="9" lengthAdjust="spacing" xml:space="preserve">▀</text>
<text x="113" y="243.7" fill="#aea5a5" textLength="9" lengthAdjust="spacing" xml:space="preserve">▀</text>
<text x="122" y="243.7" fill="#b53335" textLength="18" lengthAdjust="spacing" xml:space="preserve">▀▀</text>
<text x="140" y="243.7" fill="#282c78" textLength="18" lengthAdjust="spacing" xml:space="preserve">▀▀</text>
<text x="158" y="243.7" fill="#f73c2d" textLength="36" lengthAdjust="spacing" xml:space="preserve">▀▀▀▀</text>
<text x="194" y="243.7" fill="#aea5a5" textLength="18" lengthAdjust="spacing" xml:space="preserve">▀▀</text>
<text x="212" y="243.7" fill="#f0efe8" textLength="18" lengthAdjust="spacing" xml:space="preserve">▀▀</text>
<text x="248" y="243.7" fill="#734f5e" textLength="9" lengthAdjust="spacing" xml:space="preserve">▄</text>
<text x="257" y="243.7" fill="#c06e68" textLength="18" lengthAdjust="spacing" xml:space="preserve">▄▄</text>
<text x="329" y="243.7" fill="#797b7d" textLength="153" lengthAdjust="spacing" xml:space="preserve">first: 2026-07-30</text>
<text x="59" y="261.7" fill="#f73c2d" textLength="9" lengthAdjust="spacing" xml:space="preserve">▄</text>
<text x="68" y="261.7" fill="#b93029" textLength="9" lengthAdjust="spacing" xml:space="preserve">▀</text>
<text x="77" y="261.7" fill="#f73c2d" textLength="9" lengthAdjust="spacing" xml:space="preserve">▀</text>
<text x="86" y="261.7" fill="#b53335" textLength="9" lengthAdjust="spacing" xml:space="preserve">▀</text>
<text x="95" y="261.7" fill="#aea5a5" textLength="27" lengthAdjust="spacing" xml:space="preserve">▀▀▀</text>
<text x="122" y="261.7" fill="#cfcac7" textLength="9" lengthAdjust="spacing" xml:space="preserve">▀</text>
<text x="131" y="261.7" fill="#f73c2d" textLength="9" lengthAdjust="spacing" xml:space="preserve">▀</text>
<text x="140" y="261.7" fill="#c06e68" textLength="9" lengthAdjust="spacing" xml:space="preserve">▀</text>
<text x="149" y="261.7" fill="#848480" textLength="9" lengthAdjust="spacing" xml:space="preserve">▀</text>
<text x="158" y="261.7" fill="#202248" textLength="9" lengthAdjust="spacing" xml:space="preserve">▀</text>
<text x="167" y="261.7" fill="#f73c2d" textLength="9" lengthAdjust="spacing" xml:space="preserve">▀</text>
<text x="176" y="261.7" fill="#f0efe8" textLength="9" lengthAdjust="spacing" xml:space="preserve">▀</text>
<text x="185" y="261.7" fill="#f73c2d" textLength="9" lengthAdjust="spacing" xml:space="preserve">▀</text>
<text x="194" y="261.7" fill="#181818" textLength="9" lengthAdjust="spacing" xml:space="preserve">▀</text>
<text x="203" y="261.7" fill="#aea5a5" textLength="9" lengthAdjust="spacing" xml:space="preserve">▀</text>
<text x="212" y="261.7" fill="#f0efe8" textLength="9" lengthAdjust="spacing" xml:space="preserve">▀</text>
<text x="221" y="261.7" fill="#5b5b5c" textLength="9" lengthAdjust="spacing" xml:space="preserve">▀</text>
<text x="230" y="261.7" fill="#7a2325" textLength="9" lengthAdjust="spacing" xml:space="preserve">▀</text>
<text x="239" y="261.7" fill="#aa8e8e" textLength="9" lengthAdjust="spacing" xml:space="preserve">▀</text>
<text x="248" y="261.7" fill="#f73c2d" textLength="27" lengthAdjust="spacing" xml:space="preserve">▀▀▀</text>
<text x="275" y="261.7" fill="#f29692" textLength="9" lengthAdjust="spacing" xml:space="preserve">▀</text>
<text x="284" y="261.7" fill="#7a2325" textLength="9" lengthAdjust="spacing" xml:space="preserve">▀</text>
<text x="293" y="261.7" fill="#aa8e8e" textLength="9" lengthAdjust="spacing" xml:space="preserve">▄</text>
<text x="329" y="261.7" fill="#797b7d" textLength="207" lengthAdjust="spacing" xml:space="preserve">most recent: 2026-07-30</text>
<text x="50" y="279.7" fill="#3d1213" textLength="9" lengthAdjust="spacing" xml:space="preserve">▀</text>
<text x="59" y="279.7" fill="#f73c2d" textLength="9" lengthAdjust="spacing" xml:space="preserve">▀</text>
<text x="68" y="279.7" fill="#b53335" textLength="9" lengthAdjust="spacing" xml:space="preserve">▀</text>
<text x="77" y="279.7" fill="#aea5a5" textLength="18" lengthAdjust="spacing" xml:space="preserve">▀▀</text>
<text x="95" y="279.7" fill="#b53335" textLength="18" lengthAdjust="spacing" xml:space="preserve">▀▀</text>
<text x="113" y="279.7" fill="#35373d" textLength="18" lengthAdjust="spacing" xml:space="preserve">▀▀</text>
<text x="131" y="279.7" fill="#f0efe8" textLength="9" lengthAdjust="spacing" xml:space="preserve">▀</text>
<text x="140" y="279.7" fill="#f29692" textLength="9" lengthAdjust="spacing" xml:space="preserve">▀</text>
<text x="149" y="279.7" fill="#f73c2d" textLength="18" lengthAdjust="spacing" xml:space="preserve">▀▀</text>
<text x="167" y="279.7" fill="#282c78" textLength="9" lengthAdjust="spacing" xml:space="preserve">▀</text>
<text x="176" y="279.7" fill="#ac3269" textLength="9" lengthAdjust="spacing" xml:space="preserve">▀</text>
<text x="185" y="279.7" fill="#aea5a5" textLength="18" lengthAdjust="spacing" xml:space="preserve">▀▀</text>
<text x="203" y="279.7" fill="#f0efe8" textLength="9" lengthAdjust="spacing" xml:space="preserve">▀</text>
<text x="212" y="279.7" fill="#b53335" textLength="27" lengthAdjust="spacing" xml:space="preserve">▀▀▀</text>
<text x="239" y="279.7" fill="#672627" textLength="9" lengthAdjust="spacing" xml:space="preserve">▀</text>
<text x="293" y="279.7" fill="#882a23" textLength="9" lengthAdjust="spacing" xml:space="preserve">▀</text>
<text x="329" y="279.7" fill="#797b7d" textLength="135" lengthAdjust="spacing" xml:space="preserve">times caught: 4</text>
<text x="59" y="297.7" fill="#672627" textLength="9" lengthAdjust="spacing" xml:space="preserve">▀</text>
<text x="68" y="297.7" fill="#b53335" textLength="27" lengthAdjust="spacing" xml:space="preserve">▀▀▀</text>
<text x="95" y="297.7" fill="#0c0c0c" textLength="9" lengthAdjust="spacing" xml:space="preserve">▄</text>
<text x="104" y="297.7" fill="#b53335" textLength="9" lengthAdjust="spacing" xml:space="preserve">▀</text>
<text x="113" y="297.7" fill="#672627" textLength="9" lengthAdjust="spacing" xml:space="preserve">▀</text>
<text x="122" y="297.7" fill="#2e2e2e" textLength="9" lengthAdjust="spacing" xml:space="preserve">▀</text>
<text x="131" y="297.7" fill="#35373d" textLength="9" lengthAdjust="spacing" xml:space="preserve">▀</text>
<text x="140" y="297.7" fill="#2e2e2e" textLength="9" lengthAdjust="spacing" xml:space="preserve">▀</text>
<text x="149" y="297.7" fill="#f73c2d" textLength="27" lengthAdjust="spacing" xml:space="preserve">▀▀▀</text>
<text x="176" y="297.7" fill="#7a2325" textLength="9" lengthAdjust="spacing" xml:space="preserve">▀</text>
<text x="185" y="297.7" fill="#aea5a5" textLength="9" lengthAdjust="spacing" xml:space="preserve">▀</text>
<text x="194" y="297.7" fill="#27282b" textLength="18" lengthAdjust="spacing" xml:space="preserve">▀▀</text>
<text x="212" y="297.7" fill="#848480" textLength="9" lengthAdjust="spacing" xml:space="preserve">▀</text>
<text x="50" y="315.7" fill="#b93029" textLength="9" lengthAdjust="spacing" xml:space="preserve">▄</text>
<text x="59" y="315.7" fill="#181818" textLength="9" lengthAdjust="spacing" xml:space="preserve">▀</text>
<text x="68" y="315.7" fill="#b53335" textLength="27" lengthAdjust="spacing" xml:space="preserve">▀▀▀</text>
<text x="95" y="315.7" fill="#672627" textLength="9" lengthAdjust="spacing" xml:space="preserve">▀</text>
<text x="149" y="315.7" fill="#b93029" textLength="9" lengthAdjust="spacing" xml:space="preserve">▀</text>
<text x="158" y="315.7" fill="#f73c2d" textLength="27" lengthAdjust="spacing" xml:space="preserve">▀▀▀</text>
<text x="185" y="315.7" fill="#b93029" textLength="9" lengthAdjust="spacing" xml:space="preserve">▀</text>
<text x="194" y="315.7" fill="#f73c2d" textLength="9" lengthAdjust="spacing" xml:space="preserve">▄</text>
<text x="50" y="333.7" fill="#0c0c0c" textLength="9" lengthAdjust="spacing" xml:space="preserve">▀</text>
<text x="59" y="333.7" fill="#882a23" textLength="9" lengthAdjust="spacing" xml:space="preserve">▀</text>
<text x="68" y="333.7" fill="#0c0c0c" textLength="9" lengthAdjust="spacing" xml:space="preserve">▀</text>
<text x="77" y="333.7" fill="#882a23" textLength="9" lengthAdjust="spacing" xml:space="preserve">▀</text>
<text x="86" y="333.7" fill="#0c0c0c" textLength="9" lengthAdjust="spacing" xml:space="preserve">▀</text>
<text x="149" y="333.7" fill="#f73c2d" textLength="27" lengthAdjust="spacing" xml:space="preserve">▀▀▀</text>
<text x="176" y="333.7" fill="#b93029" textLength="9" lengthAdjust="spacing" xml:space="preserve">▀</text>
<text x="185" y="333.7" fill="#f73c2d" textLength="9" lengthAdjust="spacing" xml:space="preserve">▀</text>
<text x="194" y="333.7" fill="#b93029" textLength="9" lengthAdjust="spacing" xml:space="preserve">▀</text>
<text x="203" y="333.7" fill="#882a23" textLength="9" lengthAdjust="spacing" xml:space="preserve">▀</text>
</svg>